<svg width="688" height="351" viewBox="0 0 688 351" fill="none" xmlns="http://www.w3.org/2000/svg">
<path d="M597.74 57.0045L572.926 71.1617L558.578 46.6781C553.429 37.7673 541.95 34.6861 532.919 39.8493C523.888 45.0125 520.85 56.3383 525.998 65.1657L540.347 89.6494L515.532 103.807C506.501 108.97 503.463 120.296 508.611 129.123C513.844 138.034 525.323 141.032 534.27 135.952L559.084 121.795L573.432 146.278C578.665 155.189 590.144 158.187 599.091 153.107C608.122 147.944 611.16 136.618 606.012 127.791L591.663 103.307L616.478 89.1498C625.509 83.9865 628.547 72.6607 623.399 63.8333C618.166 54.9226 606.687 51.9246 597.74 57.0045ZM560.856 104.556L556.383 96.8946C555.286 94.9792 555.961 92.5641 557.902 91.3983L565.667 86.9845C567.609 85.9019 570.056 86.5681 571.238 88.4835L575.711 96.1451C576.809 98.0605 576.133 100.476 574.192 101.641L566.427 106.055C564.486 107.138 562.038 106.472 560.856 104.556Z" fill="#ADF288"/>
<path d="M279.763 181.477L260.302 212.837L228.528 193.641C217.048 186.61 201.996 190.113 194.92 201.538C187.844 212.964 191.486 227.765 202.914 234.701L234.689 253.897L215.227 285.258C208.151 296.684 211.794 311.484 223.221 318.421C234.798 325.4 249.797 321.802 256.829 310.523L276.29 279.163L308.065 298.359C319.641 305.339 334.641 301.741 341.673 290.462C348.749 279.036 345.106 264.235 333.679 257.299L301.904 238.103L321.365 206.742C328.441 195.316 324.799 180.516 313.371 173.579C301.795 166.6 286.795 170.198 279.763 181.477ZM267.487 258.381L257.563 252.363C255.107 250.846 254.361 247.674 255.847 245.153L261.947 235.359C263.485 232.934 266.701 232.197 269.254 233.663L279.178 239.68C281.635 241.197 282.38 244.37 280.894 246.89L274.794 256.685C273.256 259.11 270.041 259.846 267.487 258.381Z" fill="#ADF288"/>
<path d="M647.672 208.484L613.869 218.201L604.024 184.839C600.528 172.718 587.751 165.722 575.445 169.272C563.14 172.821 556.153 185.456 559.673 197.478L569.518 230.84L535.716 240.558C523.41 244.107 516.423 256.742 519.944 268.764C523.54 280.909 536.342 287.806 548.522 284.331L582.324 274.614L592.17 307.976C595.766 320.122 608.568 327.018 620.748 323.543C633.053 319.994 640.041 307.359 636.52 295.337L626.675 261.975L660.477 252.257C672.783 248.708 679.77 236.072 676.25 224.051C672.653 211.906 659.852 205.009 647.672 208.484ZM589.557 254.557L586.496 244.122C585.756 241.519 587.278 238.833 589.94 238.003L600.513 234.982C603.15 234.252 605.872 235.754 606.712 238.381L609.773 248.817C610.513 251.419 608.991 254.106 606.329 254.935L595.756 257.957C593.119 258.687 590.398 257.184 589.557 254.557Z" fill="#FFF6CC"/>
<path d="M347.883 33.7625L341.375 61.3451L313.428 54.9219C303.308 52.5312 293.169 58.6957 290.808 68.7416C288.448 78.7875 294.751 88.7338 304.81 91.0675L332.756 97.4907L326.248 125.073C323.888 135.119 330.192 145.066 340.25 147.399C350.429 149.729 360.506 143.507 362.871 133.579L369.379 105.997L397.325 112.42C407.503 114.75 417.581 108.528 419.945 98.6003C422.306 88.5543 416.002 78.6081 405.943 76.2744L377.997 69.8512L384.505 42.2686C386.865 32.2227 380.562 22.2764 370.503 19.9427C360.324 17.6129 350.247 23.8344 347.883 33.7625ZM357.832 92.9141L349.098 90.8921C346.929 90.3714 345.603 88.2309 346.069 86.0331L348.118 77.413C348.646 75.2723 350.814 73.9641 353.041 74.4239L361.775 76.4459C363.944 76.9667 365.269 79.1072 364.803 81.305L362.755 89.9251C362.227 92.0658 360.058 93.374 357.832 92.9141Z" fill="#FFF6CC"/>
<path d="M489.427 187.12L461.396 188.492L460.402 160.578C460.104 150.452 451.623 142.624 441.416 143.133C431.209 143.641 423.309 152.238 423.646 162.291L424.64 190.205L396.608 191.577C386.402 192.085 378.502 200.682 378.839 210.735C379.21 220.899 387.73 228.654 397.826 228.181L425.857 226.809L426.85 254.723C427.221 264.887 435.742 272.641 445.837 272.168C456.044 271.66 463.944 263.063 463.607 253.01L462.613 225.096L490.644 223.724C500.851 223.216 508.751 214.619 508.414 204.566C508.043 194.402 499.522 186.647 489.427 187.12ZM435.416 212.452L435.12 203.724C435.064 201.552 436.772 199.731 438.992 199.572L447.756 199.158C449.937 199.072 451.742 200.75 451.871 202.96L452.167 211.687C452.223 213.86 450.515 215.681 448.295 215.839L439.531 216.254C437.35 216.339 435.545 214.662 435.416 212.452Z" fill="#FC6363"/>
<path d="M199.472 84.2614L181.462 98.7394L166.876 80.7501C161.627 74.194 152.066 73.1208 145.512 78.3987C138.959 83.6765 137.978 93.1892 143.217 99.6782L157.803 117.667L139.792 132.145C133.239 137.423 132.258 146.936 137.497 153.425C142.814 159.971 152.364 160.977 158.861 155.776L176.871 141.298L191.456 159.288C196.773 165.833 206.324 166.839 212.82 161.639C219.374 156.361 220.355 146.849 215.116 140.36L200.53 122.37L218.541 107.892C225.094 102.615 226.075 93.1018 220.836 86.6129C215.519 80.0671 205.969 79.0611 199.472 84.2614ZM176.086 127.171L171.535 121.539C170.414 120.129 170.645 118.097 172.047 116.917L177.685 112.4C179.097 111.288 181.137 111.524 182.325 112.924L186.876 118.555C187.997 119.966 187.766 121.997 186.364 123.177L180.726 127.694C179.314 128.807 177.274 128.571 176.086 127.171Z" fill="#FC6363"/>
<path d="M85.3751 121.555L67.3602 118.872L70.2481 101.027C71.3355 94.561 66.9239 88.5169 60.3631 87.5458C53.8022 86.5746 47.6899 91.0301 46.6365 97.4543L43.7486 115.299L25.7337 112.616C19.1729 111.645 13.0605 116.1 12.0071 122.525C10.9615 129.024 15.4069 135.026 21.8922 136.006L39.9071 138.689L37.0192 156.534C35.9735 163.032 40.419 169.035 46.9042 170.015C53.4651 170.986 59.5774 166.53 60.6308 160.106L63.5187 142.261L81.5336 144.944C88.0945 145.915 94.2068 141.46 95.2602 135.036C96.3058 128.537 91.8604 122.534 85.3751 121.555ZM47.8024 130.787L48.7143 125.21C48.9527 123.824 50.2696 122.884 51.7026 123.065L57.3333 123.913C58.7324 124.135 59.6694 125.429 59.4727 126.848L58.5608 132.425C58.3224 133.811 57.0055 134.751 55.5724 134.57L49.9418 133.722C48.5426 133.5 47.6057 132.206 47.8024 130.787Z" fill="#FFF6CC"/>
</svg>
