<svg width="688" height="319" viewBox="0 0 688 319" fill="none" xmlns="http://www.w3.org/2000/svg">
<path d="M37.0149 62.2259C50.0718 75.2827 47.4885 99.0348 47.4885 99.0348C47.4885 99.0348 23.7364 101.618 10.6795 88.5612C-2.37558 75.5027 0.207678 51.7506 0.207678 51.7506C0.207678 51.7506 23.9598 49.1673 37.0166 62.2242L37.0149 62.2259Z" fill="#97D6FF"/>
<path d="M84.7126 88.5326C71.6558 101.589 47.9037 99.0062 47.9037 99.0062C47.9037 99.0062 45.3204 75.2541 58.3772 62.1972C71.4341 49.1421 95.1862 51.7254 95.1862 51.7254C95.1862 51.7254 97.7694 75.4775 84.7126 88.5343V88.5326Z" fill="#FFF6CC"/>
<path d="M58.3789 135.259C45.3221 122.202 47.9054 98.4499 47.9054 98.4499C47.9054 98.4499 71.6575 95.8667 84.7143 108.924C97.7712 121.98 95.1879 145.732 95.1879 145.732C95.1879 145.732 71.4358 148.316 58.3789 135.259Z" fill="#97D6FF"/>
<path d="M10.6812 108.951C23.738 95.8938 47.4901 98.477 47.4901 98.477C47.4901 98.477 50.0734 122.229 37.0166 135.286C23.9581 148.341 0.207639 145.76 0.207639 145.76C0.207639 145.76 -2.37562 122.007 10.6812 108.951Z" fill="#FFF6CC"/>
<path d="M203.926 50.2987C208.705 68.1346 194.592 87.4129 194.592 87.4129C194.592 87.4129 172.731 77.774 167.952 59.9381C163.175 42.1015 177.288 22.8232 177.288 22.8232C177.288 22.8232 199.15 32.4621 203.929 50.298L203.926 50.2987Z" fill="#ADF288"/>
<path d="M232.081 96.9299C214.245 101.709 194.966 87.5958 194.966 87.5958C194.966 87.5958 204.605 65.7342 222.441 60.9551C240.276 56.1774 259.555 70.2906 259.555 70.2906C259.555 70.2906 249.916 92.1522 232.08 96.9314L232.081 96.9299Z" fill="#FFF6CC"/>
<path d="M185.912 124.229C181.132 106.393 195.246 87.1149 195.246 87.1149C195.246 87.1149 217.107 96.7538 221.886 114.59C226.666 132.426 212.552 151.704 212.552 151.704C212.552 151.704 190.691 142.065 185.912 124.229Z" fill="#ADF288"/>
<path d="M157.758 77.5966C175.594 72.8175 194.872 86.9307 194.872 86.9307C194.872 86.9307 185.234 108.792 167.398 113.571C149.561 118.348 130.283 104.237 130.283 104.237C130.283 104.237 139.922 82.3758 157.758 77.5966Z" fill="#FFF6CC"/>
<path d="M297.459 182.147C297.459 207.116 272.279 227.356 272.279 227.356C272.279 227.356 247.099 207.116 247.099 182.147C247.102 157.179 272.282 136.939 272.282 136.939C272.282 136.939 297.462 157.179 297.462 182.147L297.459 182.147Z" fill="#97D6FF"/>
<path d="M317.912 252.906C292.944 252.906 272.703 227.726 272.703 227.726C272.703 227.726 292.944 202.545 317.912 202.545C342.878 202.547 363.119 227.727 363.119 227.727C363.119 227.727 342.878 252.908 317.91 252.908L317.912 252.906Z" fill="#ADF288"/>
<path d="M248.056 272.404C248.056 247.435 273.237 227.195 273.237 227.195C273.237 227.195 298.417 247.435 298.417 272.404C298.417 297.372 273.237 317.612 273.237 317.612C273.237 317.612 248.056 297.372 248.056 272.404Z" fill="#97D6FF"/>
<path d="M227.605 201.644C252.573 201.644 272.814 226.824 272.814 226.824C272.814 226.824 252.573 252.004 227.605 252.004C202.637 252.001 182.397 226.824 182.397 226.824C182.397 226.824 202.637 201.644 227.605 201.644Z" fill="#ADF288"/>
<path d="M659.954 209.632C645.564 230.036 613.321 232.065 613.321 232.065C613.321 232.065 604.408 201.012 618.798 180.608C633.191 160.205 665.434 158.176 665.434 158.176C665.434 158.176 674.346 189.229 659.956 209.634L659.954 209.632Z" fill="#97D6FF"/>
<path d="M635.888 279.244C615.483 264.854 613.454 232.612 613.454 232.612C613.454 232.612 644.507 223.699 664.912 238.089C685.314 252.479 687.343 284.722 687.343 284.722C687.343 284.722 656.29 293.635 635.885 279.245L635.888 279.244Z" fill="#ADF288"/>
<path d="M567.563 254.919C581.953 234.514 614.196 232.486 614.196 232.486C614.196 232.486 623.109 263.538 608.719 283.943C594.329 304.347 562.086 306.376 562.086 306.376C562.086 306.376 553.174 275.323 567.563 254.919Z" fill="#97D6FF"/>
<path d="M591.631 185.306C612.036 199.696 614.064 231.938 614.064 231.938C614.064 231.938 583.012 240.851 562.607 226.461C542.205 212.069 540.174 179.828 540.174 179.828C540.174 179.828 571.227 170.916 591.631 185.306Z" fill="#ADF288"/>
<path d="M609.626 54.7492C598.169 70.995 572.497 72.6102 572.497 72.6102C572.497 72.6102 565.401 47.8861 576.858 31.6403C588.317 15.3959 613.989 13.7807 613.989 13.7807C613.989 13.7807 621.085 38.5048 609.628 54.7507L609.626 54.7492Z" fill="#ADF288"/>
<path d="M590.465 110.174C574.219 98.717 572.603 73.0455 572.603 73.0455C572.603 73.0455 597.328 65.9494 613.573 77.4065C629.817 88.864 631.433 114.535 631.433 114.535C631.433 114.535 606.709 121.632 590.463 110.174L590.465 110.174Z" fill="#FFF6CC"/>
<path d="M536.065 90.8062C547.523 74.5603 573.194 72.9451 573.194 72.9451C573.194 72.9451 580.29 97.6692 568.833 113.915C557.376 130.161 531.704 131.776 531.704 131.776C531.704 131.776 524.608 107.052 536.065 90.8062Z" fill="#ADF288"/>
<path d="M555.228 35.3809C571.474 46.8381 573.089 72.5096 573.089 72.5096C573.089 72.5096 548.365 79.6057 532.119 68.1486C515.875 56.6893 514.258 31.02 514.258 31.02C514.258 31.02 538.982 23.9238 555.228 35.3809Z" fill="#FFF6CC"/>
<path d="M407.806 64.0394C390.307 73.4727 366.609 63.4724 366.609 63.4724C366.609 63.4724 371.28 38.178 388.779 28.7446C406.279 19.3136 429.978 29.3139 429.978 29.3139C429.978 29.3139 425.306 54.6083 407.807 64.0416L407.806 64.0394Z" fill="#97D6FF"/>
<path d="M365.943 105.107C356.509 87.608 366.51 63.9093 366.51 63.9093C366.51 63.9093 391.804 68.5812 401.238 86.0799C410.669 103.578 400.669 127.277 400.669 127.277C400.669 127.277 375.374 122.605 365.941 105.106L365.943 105.107Z" fill="#FFF6CC"/>
<path d="M325.886 63.5158C343.385 54.0825 367.083 64.0828 367.083 64.0828C367.083 64.0828 362.411 89.3772 344.913 98.8105C327.414 108.244 303.715 98.2435 303.715 98.2435C303.715 98.2435 308.387 72.9491 325.886 63.5158Z" fill="#97D6FF"/>
<path d="M367.75 22.4488C377.184 39.9475 367.184 63.6463 367.184 63.6463C367.184 63.6463 341.889 58.9744 332.456 41.4757C323.025 23.9757 333.023 0.278197 333.023 0.278197C333.023 0.278197 358.317 4.95003 367.75 22.4488Z" fill="#FFF6CC"/>
<path d="M480.112 211.66C462.132 211.66 447.557 193.528 447.557 193.528C447.557 193.528 462.132 175.395 480.112 175.395C498.092 175.398 512.667 193.53 512.667 193.53C512.667 193.53 498.092 211.662 480.112 211.662L480.112 211.66Z" fill="#97D6FF"/>
<path d="M429.159 226.388C429.159 208.408 447.291 193.833 447.291 193.833C447.291 193.833 465.424 208.408 465.424 226.388C465.422 244.366 447.29 258.942 447.29 258.942C447.29 258.942 429.158 244.366 429.158 226.387L429.159 226.388Z" fill="#FFF6CC"/>
<path d="M415.118 176.085C433.098 176.085 447.673 194.217 447.673 194.217C447.673 194.217 433.098 212.35 415.118 212.35C397.139 212.35 382.564 194.217 382.564 194.217C382.564 194.217 397.139 176.085 415.118 176.085Z" fill="#97D6FF"/>
<path d="M466.073 161.358C466.073 179.338 447.94 193.913 447.94 193.913C447.94 193.913 429.808 179.338 429.808 161.358C429.81 143.379 447.94 128.803 447.94 128.803C447.94 128.803 466.073 143.379 466.073 161.358Z" fill="#FFF6CC"/>
</svg>
