<svg width="48" height="46" viewBox="0 0 48 46" fill="none" xmlns="http://www.w3.org/2000/svg">
<path d="M42.0433 45.3333C42.0433 39.7613 40.1039 35.3586 36.3636 32.1942C33.3853 29.7178 29.368 28.2731 25.0043 27.998L17.9394 45.127H0L1.30188e-07 42.1689C3.96619e-07 36.1153 2.7013 30.7496 7.61905 27.0349C11.0823 24.4208 15.5152 22.7699 20.2944 22.2195C15.5844 21.5316 11.29 19.8118 7.8961 17.0602C2.77056 13.0015 1.67428e-06 7.08548 1.98612e-06 0L5.95671 2.58598e-07C5.95671 5.29691 7.89611 9.49317 11.6364 12.4512C14.684 14.8589 18.8398 16.3035 23.342 16.5099L30.1991 1.31103e-06L48 2.08382e-06V2.95802C48 8.87405 45.2987 14.1022 40.3809 17.6793C36.9177 20.2246 32.5541 21.8068 27.7749 22.3571C32.4848 23.045 36.8485 24.8336 40.1732 27.654C45.2987 31.9191 48 38.0415 48 45.3333H42.0433ZM34.2164 5.91604L30.0606 15.9595C35.6017 14.5837 40.3809 11.2129 41.697 5.91604H34.2164ZM13.9221 39.1421L18.355 28.5483C12.5368 29.9241 7.61905 33.5013 6.30303 39.1421L13.9221 39.1421Z" fill="#99D8FF"/>
</svg>
