<svg width="54" height="51" viewBox="0 0 54 51" fill="none" xmlns="http://www.w3.org/2000/svg">
<path d="M47.2987 51C47.2987 44.7314 45.1169 39.7785 40.9091 36.2185C37.5584 33.4325 33.039 31.8073 28.1299 31.4977L20.1818 50.7678H0L1.46462e-07 47.4401C4.46197e-07 40.6297 3.03896 34.5933 8.57143 30.4143C12.4675 27.4734 17.4545 25.6161 22.8312 24.997C17.5325 24.2231 12.7013 22.2883 8.88312 19.1927C3.11688 14.6267 1.88356e-06 7.97117 2.23439e-06 0L6.7013 2.90923e-07C6.7013 5.95903 8.88312 10.6798 13.0909 14.0076C16.5195 16.7162 21.1948 18.3414 26.2597 18.5736L33.974 1.47491e-06L54 2.3443e-06V3.32777C54 9.98331 50.961 15.8649 45.4286 19.8892C41.5325 22.7527 36.6234 24.5326 31.2468 25.1517C36.5455 25.9256 41.4545 27.9378 45.1948 31.1108C50.961 35.909 54 42.7967 54 51H47.2987ZM38.4935 6.65554L33.8182 17.9545C40.052 16.4067 45.4286 12.6146 46.9091 6.65554H38.4935ZM15.6623 44.0349L20.6494 32.1168C14.1039 33.6646 8.57143 37.6889 7.09091 44.0349L15.6623 44.0349Z" fill="#FC6363"/>
</svg>
