<svg width="48" height="46" viewBox="0 0 48 46" fill="none" xmlns="http://www.w3.org/2000/svg">
<path d="M42.0433 46C42.0433 40.346 40.1039 35.8786 36.3636 32.6677C33.3853 30.1548 29.368 28.6889 25.0043 28.4097L17.9394 45.7906H0L1.30188e-07 42.7891C3.9662e-07 36.6464 2.7013 31.2018 7.61905 27.4325C11.0823 24.78 15.5152 23.1047 20.2944 22.5463C15.5844 21.8483 11.29 20.1032 7.89611 17.3111C2.77056 13.1927 1.67428e-06 7.18968 1.98612e-06 0L5.95671 2.62401e-07C5.95671 5.37481 7.8961 9.63278 11.6364 12.6343C14.684 15.0774 18.8398 16.5432 23.342 16.7527L30.1991 1.33031e-06L48 2.11446e-06V3.00152C48 9.00455 45.2987 14.3096 40.381 17.9393C36.9178 20.522 32.5541 22.1275 27.7749 22.6859C32.4849 23.3839 36.8485 25.1988 40.1732 28.0607C45.2987 32.3885 48 38.6009 48 46H42.0433ZM34.2164 6.00304L30.0606 16.1942C35.6017 14.7982 40.381 11.3778 41.697 6.00304H34.2164ZM13.9221 39.7178L18.355 28.9681C12.5368 30.3642 7.61905 33.9939 6.30303 39.7178L13.9221 39.7178Z" fill="#ADF288"/>
</svg>
