<svg width="220" height="142" viewBox="0 0 220 142" fill="none" xmlns="http://www.w3.org/2000/svg">
<g clip-path="url(#clip0_104_1224)">
<path d="M85.5228 94.163C85.5228 115.109 88.9794 132.093 81.6916 132.093C74.4039 132.093 60 115.626 60 94.6795C60 73.733 69.4179 57.1654 76.6979 57.1654C83.9778 57.1654 85.5228 73.2164 85.5228 94.1707V94.163Z" fill="#FC6363"/>
<path d="M134.469 94.163C134.469 115.11 131.013 132.093 138.3 132.093C145.58 132.093 160 115.626 160 94.6718C160 73.7253 150.582 57.1577 143.302 57.1577C136.022 57.1577 134.477 73.2087 134.477 94.163H134.469Z" fill="#FC6363"/>
<path d="M137.567 41.5153C136.412 40.2201 136.061 38.524 136.6 36.959C137.551 34.199 138.066 31.254 138.066 28.1934C138.066 12.628 124.732 0 108.283 0C91.8351 0 78.508 12.628 78.508 28.2011C78.508 32.4259 79.4912 36.4271 81.2468 40.0197C81.8086 41.1684 81.6526 42.4867 80.8255 43.512C72.4609 53.8966 71.2749 68.6371 71.2749 85.0504C71.2749 116.474 86.3966 142 110.039 142C133.681 142 149.021 116.482 149.021 85.0504C149.021 67.5577 146.907 51.9538 137.567 41.5153Z" fill="#FFF6CC"/>
<path d="M110.25 126.404C124.613 126.404 136.256 110.668 136.256 91.2565C136.256 71.8452 124.613 56.1093 110.25 56.1093C95.8867 56.1093 84.2432 71.8452 84.2432 91.2565C84.2432 110.668 95.8867 126.404 110.25 126.404Z" fill="#FC6363"/>
<path d="M108.377 26.4125C108.377 26.4125 107.191 33.2123 105.061 33.5283L108.377 40.4745L112.216 33.4435C112.216 33.4435 109.142 32.8576 108.377 26.4125Z" fill="#FC6363"/>
<path d="M102.681 21.1701C100.808 17.9707 75.7069 8.15656 75.7069 8.15656C75.7069 8.15656 72.1098 14.4629 80.4588 16.7603C80.4588 16.7603 89.7674 18.8187 96.3686 20.2064C94.4413 21.6018 93.9341 24.2616 95.2606 26.2583C96.626 28.3244 99.4272 28.8949 101.518 27.5458C103.61 26.1966 104.187 23.4289 102.821 21.3628C102.775 21.2934 102.728 21.2317 102.681 21.1701Z" fill="#FC6363"/>
<path d="M113.246 21.1701C115.119 17.9707 140.22 8.15656 140.22 8.15656C140.22 8.15656 143.817 14.4629 135.468 16.7603C135.468 16.7603 126.16 18.8187 119.558 20.2064C121.486 21.6018 121.993 24.2616 120.666 26.2583C119.301 28.3244 116.5 28.8949 114.409 27.5458C112.317 26.1966 111.74 23.4289 113.106 21.3628C113.152 21.2934 113.199 21.2317 113.246 21.1701Z" fill="#FC6363"/>
</g>
<defs>
<clipPath id="clip0_104_1224">
<rect width="100" height="142" fill="white" transform="translate(60)"/>
</clipPath>
</defs>
</svg>
