<svg width="220" height="142" viewBox="0 0 220 142" fill="none" xmlns="http://www.w3.org/2000/svg">
<path d="M146.106 57.9157C144.357 51.6429 141.653 46.0852 137.564 41.5162C136.407 40.2247 136.056 38.5278 136.596 36.9626C137.548 34.2034 138.064 31.2577 138.064 28.1975C138.064 24.1211 137.15 20.2466 135.505 16.7484C143.8 14.4426 140.216 8.15612 140.216 8.15612C140.216 8.15612 136.707 9.52802 132.216 11.4131C126.79 4.4886 118.091 0 108.285 0C98.4789 0 89.611 4.57755 84.1971 11.6184C79.474 9.62895 75.7084 8.15612 75.7084 8.15612C75.7084 8.15612 72.1124 14.4631 80.4591 16.7587C80.4591 16.7587 80.6531 16.8015 81.0028 16.8785C79.3978 20.3424 78.5045 24.1707 78.5045 28.1958C78.5045 32.2208 79.4861 36.422 81.2417 40.0177C81.8044 41.1689 81.6468 42.4861 80.8193 43.5124C77.4639 47.6794 75.2652 52.5478 73.8333 57.9447C67.1694 61.4549 60 76.3952 60 94.6764C60 115.624 74.4133 132.096 81.6971 132.096C83.3003 132.096 84.3823 131.273 85.0974 129.766C91.5518 137.424 100.034 142 110.042 142C120.051 142 128.479 137.474 134.965 129.889C135.68 131.317 136.745 132.096 138.303 132.096C145.587 132.096 160 115.624 160 94.6764C160 76.3439 152.791 61.3693 146.108 57.9157H146.106Z" fill="#FC6363"/>
</svg>
