<svg width="49" height="48" viewBox="0 0 49 48" fill="none" xmlns="http://www.w3.org/2000/svg">
<path d="M48.8182 24C48.8182 22.1428 48.8182 21.2143 48.7621 20.4305C47.9816 9.51765 39.3005 0.836559 28.3876 0.0560535C27.6039 0 26.6753 0 24.8182 0V0C22.961 0 22.0324 0 21.2487 0.0560535C10.3358 0.836559 1.65474 9.51765 0.87423 20.4305C0.818176 21.2143 0.818176 22.1428 0.818176 24V24C0.818176 25.8572 0.818176 26.7857 0.87423 27.5695C1.65474 38.4824 10.3358 47.1634 21.2487 47.9439C22.0324 48 22.961 48 24.8182 48V48C26.6753 48 27.6039 48 28.3876 47.9439C39.3005 47.1634 47.9816 38.4824 48.7621 27.5695C48.8182 26.7857 48.8182 25.8572 48.8182 24V24Z" fill="white"/>
<path d="M24.7168 47.9914H24.9081C34.4386 47.9914 39.9704 47.0319 43.8889 43.2277C47.8842 39.1924 48.8068 33.6231 48.8068 24.1299V23.8615C48.8068 14.3712 47.8842 8.83918 43.8889 4.76372C39.9732 0.9596 34.4014 0 24.911 0H24.7196C15.1893 0 9.65449 0.9596 5.73613 4.76372C1.74065 8.79919 0.818176 14.3712 0.818176 23.8615V24.1299C0.818176 33.6203 1.74065 39.1524 5.73613 43.2277C9.61738 47.0319 15.1893 47.9914 24.7168 47.9914Z" fill="#99D8FF"/>
<path d="M43.0924 23.6335C43.0932 23.6335 43.0939 23.6328 43.0939 23.632C43.0931 23.4499 42.9449 23.2993 42.7625 23.2908C36.2032 23.0423 32.2113 22.2057 29.4186 19.4129C26.62 16.6145 25.7862 12.6195 25.5377 6.04599C25.532 5.86323 25.3807 5.71476 25.1951 5.71476H24.4298C24.247 5.71476 24.0957 5.86323 24.0871 6.04599C23.8387 12.6167 23.0048 16.6145 20.2064 19.4129C17.4108 22.2085 13.4215 23.0423 6.8623 23.2908C6.67955 23.2965 6.53107 23.4478 6.53107 23.6335V24.3988C6.53107 24.5815 6.67955 24.7329 6.8623 24.7414C13.4215 24.9899 17.4136 25.8265 20.2064 28.6193C22.9991 31.4121 23.8329 35.3957 24.0843 41.9433C24.0899 42.1261 24.2413 42.2746 24.4269 42.2746H25.1951C25.3778 42.2746 25.5292 42.1261 25.5377 41.9433C25.789 35.3957 26.6229 31.4121 29.4157 28.6193C32.2113 25.8237 36.2004 24.9899 42.7597 24.7414C42.9425 24.7357 43.091 24.5844 43.091 24.3988V23.6349C43.091 23.6341 43.0917 23.6335 43.0924 23.6335V23.6335Z" fill="white"/>
</svg>
