<svg width="354" height="237" viewBox="0 0 354 237" fill="none" xmlns="http://www.w3.org/2000/svg">
<path d="M145.383 229.924C145.383 229.924 224.619 247.885 284.617 226.576C344.598 205.267 354 132.081 354 132.081C354 132.081 255.643 130.455 195.653 151.759C135.656 173.073 145.383 229.924 145.383 229.924Z" fill="#ADF288"/>
<g clip-path="url(#clip0_1_46)">
<path d="M289.127 59.95L248.444 72.0913L250.783 41.7117L289.127 59.95Z" fill="#FC6363"/>
<path d="M0 221.526C0 221.526 121.35 69.9979 138.018 35.83L184.229 12.8482L242.348 26.1845C242.348 26.1845 272.893 57.7835 248.87 143.939C223.377 235.35 121.29 237.008 121.29 237.008C121.29 237.008 74.8028 236.533 43.0508 222.347C43.0508 222.347 22.5123 235.342 0 221.534V221.526Z" fill="#99D8FF"/>
<path d="M122.138 18.238C122.138 18.238 165.234 -12.4058 215.132 5.75534C241.783 15.4009 251.295 41.8783 251.295 41.8783C251.295 41.8783 223.746 32.2613 174.307 39.2363C130.078 45.4797 122.142 18.238 122.142 18.238H122.138Z" fill="#FC6363"/>
<path d="M220.717 65.8357C225.142 65.8357 228.73 62.2452 228.73 57.816C228.73 53.3869 225.142 49.7964 220.717 49.7964C216.291 49.7964 212.703 53.3869 212.703 57.816C212.703 62.2452 216.291 65.8357 220.717 65.8357Z" fill="#FC6363"/>
<path d="M193.623 97.6217C209.763 115.128 200.978 157.483 165.648 182.139C110.117 220.896 54.6259 188.521 54.6259 188.521C54.6259 188.521 75.607 147.91 107.201 118.742C138.794 89.5736 177.483 80.115 193.623 97.6217Z" fill="#FC6363"/>
</g>
<defs>
<clipPath id="clip0_1_46">
<rect width="289.127" height="237.001" fill="white" transform="translate(0 -0.000305176)"/>
</clipPath>
</defs>
</svg>
