<svg width="86" height="60" viewBox="0 0 86 60" fill="none" xmlns="http://www.w3.org/2000/svg">
<g clip-path="url(#clip0_1_27)">
<path d="M29.7581 23.1695C31.5105 23.1695 32.9311 21.7671 32.9311 20.0373C32.9311 18.3074 31.5105 16.905 29.7581 16.905C28.0057 16.905 26.5851 18.3074 26.5851 20.0373C26.5851 21.7671 28.0057 23.1695 29.7581 23.1695Z" fill="black"/>
<path d="M78.8396 38.2891C83.5175 27.5635 85.0813 16.2472 85.3034 4.68927C85.3306 3.19028 85.3034 1.69576 85.3034 0.035681C67.7704 -0.514696 53.9181 5.20833 45.1878 20.6905C45.0609 20.6323 44.9295 20.5786 44.8025 20.5204V0.156495C44.2541 0.0983255 43.9912 0.0580541 43.7283 0.0446303C35.415 -0.317813 27.9359 2.00451 21.2771 6.87736C16.8757 10.0991 13.4852 14.1575 10.7156 18.7216L8.62599 22.0373C8.5036 21.9792 8.38575 21.921 8.26336 21.8628V0.357853H0V59.9999H9.92691C9.92691 58.2593 9.91331 56.5813 9.92691 54.9033C10.0085 47.122 10.906 39.457 13.4807 32.056C14.6773 28.6195 16.1732 25.3888 18.0679 22.4356L11.935 16.896H22.3605C23.8472 15.3567 25.47 14.0636 27.3239 12.7794C30.03 10.9045 33.8648 9.4771 37.337 8.81933V39.1572H44.7617C45.1516 34.1635 46.9647 29.6889 48.8549 26.588C49.3127 25.7691 49.8295 24.9682 50.4097 24.1896C55.7403 16.9855 62.9792 12.4124 71.5055 9.71873C73.1917 9.18625 74.9686 8.94015 76.8588 8.52848C76.3873 17.6746 74.9912 26.324 71.3423 34.4991C68.3234 41.2647 64.2076 47.1712 57.5579 51.0194C57.354 51.1357 57.1001 51.3997 57.0956 51.5921C57.0639 54.3798 57.0729 57.163 57.0729 59.9999H84.7731V51.8382H69.9779C70.2046 51.5295 70.2907 51.3818 70.4085 51.261C74.0393 47.4531 76.75 43.0635 78.8351 38.2891H78.8396Z" fill="black"/>
</g>
<defs>
<clipPath id="clip0_1_27">
<rect width="85.3125" height="60" fill="white"/>
</clipPath>
</defs>
</svg>
