<svg width="359" height="60" viewBox="0 0 359 60" fill="none" xmlns="http://www.w3.org/2000/svg">
<g clip-path="url(#clip0_1_145)">
<path d="M358.873 58.1596H347.634C346.324 50.7508 343.67 43.8911 338.626 37.8164C338.397 38.8417 338.223 39.674 338.028 40.4977C336.434 47.2501 333.297 52.9687 327.311 56.7739C316.564 63.6079 301.235 59.0948 296.355 47.6705C291.45 36.1819 297.788 24.127 310.188 21.3599C325.725 17.8893 341.004 24.7491 348.851 38.7087C349.042 39.0476 349.262 39.3737 349.563 39.8627C349.758 39.5067 349.911 39.3565 349.894 39.2364C348.817 32.6941 347.003 26.435 342.933 21.0639C338.571 15.3067 332.538 12.3938 325.717 10.8537C319.12 9.36509 312.41 9.05621 305.682 8.9747C303.532 8.94896 301.387 8.9747 299.162 8.9747V1.18835C299.357 1.14545 299.552 1.05965 299.747 1.06823C307.132 1.41572 314.542 1.49294 321.893 2.20508C329.634 2.95583 336.955 5.31104 343.213 10.2574C349.067 14.882 352.7 21.0596 355.112 28.0266C358.483 37.7521 359.369 47.8035 358.873 58.1639V58.1596ZM315.784 52.1236C320.596 51.9563 324.538 50.0987 327.366 46.0875C330.172 42.1021 330.885 37.5032 331.152 32.7714C331.198 31.9134 330.94 31.4672 330.172 31.1111C323.724 28.1167 317.039 27.5847 310.286 29.5882C303.202 31.686 300.412 39.8027 304.397 46.1004C307.047 50.2874 311.04 51.9348 315.784 52.1236Z" fill="#99D8FF"/>
<path d="M0 1.81463H7.78343V33.5092C7.90637 33.5478 8.03355 33.5864 8.15649 33.625C8.35574 33.2604 8.57618 32.9086 8.75848 32.5311C14.1933 21.2612 22.3244 12.6641 33.5544 7.17284C41.342 3.36761 49.6342 1.81892 58.2316 1.73741C59.6221 1.72454 61.0126 1.73741 62.4921 1.73741V59.172C60.1181 59.172 57.7228 59.1849 55.3276 59.1462C55.1453 59.1462 54.8655 58.8159 54.8147 58.5928C54.7256 58.2282 54.7807 57.8292 54.7807 57.4474C54.7807 42.1278 54.7807 26.8082 54.7807 11.4843V9.45084C51.3426 10.0729 48.0741 10.4633 44.9116 11.2698C32.2487 14.5045 23.1214 22.3251 16.9319 33.7709C12.8155 41.3856 10.4415 49.5581 9.47492 58.1681C9.43677 58.5242 9.04251 59.1248 8.80511 59.1334C5.90116 59.202 2.99297 59.1763 0 59.1763L0 1.81463Z" fill="#99D8FF"/>
<path d="M220.026 1.73749V59.1034H212.285V33.7795C212.145 33.7452 212.005 33.7109 211.865 33.6766C211.679 34.0069 211.475 34.3286 211.314 34.6718C208.363 40.9438 204.548 46.5809 199.317 51.1498C193.628 56.1219 187.124 59.0991 179.472 58.9361C175.063 58.8417 170.79 57.958 167.043 55.4741C162.04 52.1622 159.433 47.2544 158.293 41.4586C156.694 33.3377 157.61 25.3239 159.412 17.3617C160.667 11.819 162.485 6.46507 164.834 1.29562C165.025 0.875196 165.245 0.471936 165.487 -0.00854492C167.814 1.18408 170.061 2.3338 172.261 3.45778C171.083 6.61951 169.836 9.64396 168.823 12.7499C166.631 19.4638 165.228 26.3449 165.241 33.4492C165.245 36.9198 165.661 40.3432 167.064 43.5736C168.997 48.0266 172.41 50.4119 177.153 50.7765C184.729 51.36 191.05 48.4814 196.409 43.2862C202.195 37.6749 205.4 30.5835 207.503 22.9172C209.258 16.5166 210.131 9.97429 210.326 3.34624C210.364 2.10214 210.644 1.63882 211.971 1.69888C214.621 1.81471 217.279 1.7332 220.026 1.7332V1.73749Z" fill="#99D8FF"/>
<path d="M275.574 8.1725V0.86662H283.357V25.1438C280.941 25.1438 278.584 25.1738 276.227 25.1009C275.96 25.0923 275.604 24.5432 275.468 24.1742C274.743 22.1794 274.311 20.0386 273.34 18.1811C270.538 12.8186 265.883 9.90995 260.067 8.96186C252.745 7.76924 246.204 9.62681 240.739 14.7577C232.532 22.4625 231.773 38.9833 243.749 47.1C253.826 53.934 269.122 53.239 278.05 44.496C280.386 42.2051 282.166 39.541 283.455 36.5294C283.603 36.1819 283.756 35.8344 283.955 35.3754C286.367 36.2163 288.737 37.0442 291.416 37.9794C290.314 40.1759 289.428 42.3467 288.203 44.2986C282.633 53.1832 274.412 57.9108 264.238 59.2321C255.017 60.429 246.34 58.6873 238.683 53.1918C230.124 47.0485 226.449 38.4471 226.987 27.9623C227.89 10.2789 242.766 0.253149 257.349 0.780819C264.098 1.02535 270.076 3.23041 275.087 7.89794C275.171 7.97516 275.29 8.01377 275.583 8.1725H275.574Z" fill="#99D8FF"/>
<path d="M99.4082 23.7924C101.047 23.7924 102.376 22.4479 102.376 20.7894C102.376 19.1309 101.047 17.7864 99.4082 17.7864C97.7693 17.7864 96.4407 19.1309 96.4407 20.7894C96.4407 22.4479 97.7693 23.7924 99.4082 23.7924Z" fill="#99D8FF"/>
<path d="M145.312 38.2883C149.687 28.0052 151.149 17.1557 151.357 6.07466C151.383 4.63751 151.357 3.20465 151.357 1.61306C134.959 1.08539 122.004 6.5723 113.839 21.4157C113.72 21.3599 113.597 21.3085 113.479 21.2527V1.7246C112.966 1.66883 112.72 1.63022 112.474 1.61735C104.699 1.26986 97.704 3.49637 91.4764 8.16818C87.36 11.257 84.189 15.148 81.5988 19.5238L79.6444 22.7027C79.53 22.6469 79.4198 22.5912 79.3053 22.5354V1.92194H71.5854V59.1034H80.8696C80.8696 57.4346 80.8569 55.8258 80.8696 54.2171C80.9459 46.7568 81.7853 39.408 84.1932 32.3123C85.3124 29.0176 86.7114 25.9202 88.4835 23.0888L82.7476 17.7778H92.4981C93.8886 16.302 95.4063 15.0622 97.1402 13.831C99.6711 12.0335 103.258 10.665 106.505 10.0343V39.1206H113.449C113.814 34.3329 115.509 30.0429 117.277 27.0699C117.705 26.2849 118.189 25.517 118.731 24.7705C123.717 17.8636 130.487 13.4792 138.461 10.8966C140.038 10.3861 141.7 10.1502 143.468 9.75548C143.027 18.5243 141.721 26.8168 138.308 34.6547C135.485 41.1412 131.636 46.804 125.417 50.4934C125.226 50.6049 124.988 50.858 124.984 51.0425C124.954 53.7152 124.963 56.3835 124.963 59.1034H150.87V51.2784H137.032C137.244 50.9824 137.325 50.8409 137.435 50.725C140.831 47.0742 143.366 42.8657 145.316 38.2883H145.312Z" fill="#99D8FF"/>
</g>
<defs>
<clipPath id="clip0_1_145">
<rect width="359" height="60" fill="white"/>
</clipPath>
</defs>
</svg>
