<svg width="220" height="142" viewBox="0 0 220 142" fill="none" xmlns="http://www.w3.org/2000/svg">
<path d="M191.983 46.5123C191.983 46.5123 161.591 58.5677 131.933 54.0899C119.737 52.248 110.222 50.4881 106.519 50.1709C102.499 49.8268 94.0366 48.8183 92.1407 42.9089C88.5848 31.8273 78.4714 22.0195 63.5466 23.0786C50.7488 23.9861 44.1069 32.8343 42.4723 35.3376L28 39.8895L40.5557 46.0719C41.1324 48.381 42.4516 50.8606 45.0389 53.2503C53.822 61.363 52.3324 80.2984 54.1502 89.4497C56.6546 102.059 63.1436 120.534 96.678 118.898C128.153 117.364 154.777 83.7171 154.777 83.7171C154.777 83.7171 192.931 70.571 191.983 46.5123Z" fill="#ADF288"/>
</svg>
