<svg width="220" height="142" viewBox="0 0 220 142" fill="none" xmlns="http://www.w3.org/2000/svg">
<g clip-path="url(#clip0_104_1371)">
<path d="M28 39.8883L43.977 34.8645L43.011 47.2799L28 39.8883Z" fill="#FC6363"/>
<path d="M106.518 50.1703C102.499 49.827 94.0359 48.8177 92.1401 42.9086C88.5836 31.8279 78.4718 22.0192 63.5467 23.0792C48.6216 24.1377 42.0677 35.9947 42.0677 35.9947C42.0677 35.9947 36.2568 45.1361 45.041 53.2503C53.8237 61.363 52.3348 80.2982 54.1522 89.45C56.6568 102.059 63.1458 120.533 96.6791 118.899C128.152 117.364 154.778 83.717 154.778 83.717C154.778 83.717 192.93 70.5716 191.982 46.5126C191.982 46.5126 161.591 58.5682 131.932 54.0893C119.737 52.2485 110.221 50.4883 106.518 50.1703Z" fill="#ADF288"/>
<path d="M67.3353 77.0973C67.0188 86.5223 82.7049 97.0073 102.232 95.3322C132.925 92.6987 142.33 68.6681 142.33 68.6681C142.33 68.6681 122.968 61.8482 103.379 61.2018C83.79 60.5553 67.6517 67.6723 67.3353 77.0973Z" fill="#FC6363"/>
<path d="M59.8364 43.1937C61.5726 43.1937 62.98 41.7994 62.98 40.0794C62.98 38.3594 61.5726 36.9651 59.8364 36.9651C58.1003 36.9651 56.6929 38.3594 56.6929 40.0794C56.6929 41.7994 58.1003 43.1937 59.8364 43.1937Z" fill="#FC6363"/>
</g>
<defs>
<clipPath id="clip0_104_1371">
<rect width="164" height="96" fill="white" transform="translate(28 23)"/>
</clipPath>
</defs>
</svg>
