<svg width="220" height="142" viewBox="0 0 220 142" fill="none" xmlns="http://www.w3.org/2000/svg">
<path d="M182 41.846L163.122 32.8703C163.116 32.8561 163.111 32.842 163.105 32.8298C163.14 32.842 163.158 32.848 163.158 32.848C163.158 32.848 162.853 32 162.181 30.6562C160.379 26.7705 158.702 25.036 158.702 25.036L158.655 25.0259C155.795 21.2859 151.426 17.137 145.145 14.8643C120.294 5.82179 98.8303 21.0795 98.8303 21.0795C98.8303 21.0795 100.402 26.4649 107.075 29.6706L106.737 29.8386C98.4379 46.8489 38 122.295 38 122.295C49.2121 129.17 59.4412 122.7 59.4412 122.7C75.2551 129.763 98.4076 130 98.4076 130C98.4076 130 149.252 129.176 161.948 83.6603C166.388 67.747 167.084 55.5756 166.206 46.5554L181.998 41.844L182 41.846Z" fill="#99D8FF"/>
</svg>
