<svg width="220" height="142" viewBox="0 0 220 142" fill="none" xmlns="http://www.w3.org/2000/svg">
<g clip-path="url(#clip0_104_1102)">
<path d="M182 41.8682L161.735 47.9024L162.901 32.7896L182 41.8682Z" fill="#FC6363"/>
<path d="M38 122.263C38 122.263 98.4406 46.8632 106.736 29.8636L129.755 18.4242L158.699 25.0599C158.699 25.0599 173.914 40.7835 161.944 83.6517C149.245 129.136 98.4041 129.956 98.4041 129.956C98.4041 129.956 75.2489 129.719 59.4414 122.664C59.4414 122.664 49.213 129.127 38 122.263Z" fill="#99D8FF"/>
<path d="M98.8325 21.104C98.8325 21.104 120.292 5.85445 145.143 14.8875C158.416 19.6912 163.157 32.8625 163.157 32.8625C163.157 32.8625 149.437 28.077 124.814 31.5499C102.789 34.6581 98.8325 21.104 98.8325 21.104Z" fill="#FC6363"/>
<path d="M147.924 44.7941C150.129 44.7941 151.916 43.0067 151.916 40.8017C151.916 38.5968 150.129 36.8093 147.924 36.8093C145.718 36.8093 143.931 38.5968 143.931 40.8017C143.931 43.0067 145.718 44.7941 147.924 44.7941Z" fill="#FC6363"/>
<path d="M134.431 60.6088C142.472 69.3228 138.096 90.3969 120.502 102.666C92.8432 121.953 65.2119 105.838 65.2119 105.838C65.2119 105.838 75.6591 85.6297 91.3937 71.1185C107.128 56.6073 126.4 51.8948 134.441 60.6088H134.431Z" fill="#FC6363"/>
</g>
<defs>
<clipPath id="clip0_104_1102">
<rect width="144" height="117.931" fill="white" transform="translate(38 12.0345)"/>
</clipPath>
</defs>
</svg>
