<svg width="51" height="48" viewBox="0 0 51 48" fill="none" xmlns="http://www.w3.org/2000/svg">
<path d="M36.167 14.3665C36.177 14.3665 36.1904 14.3665 36.2037 14.3665C36.5519 14.3665 36.8751 14.4701 37.14 14.6486L37.135 14.6454C37.3283 14.8064 37.4582 15.0327 37.4899 15.2876V15.2924C37.5232 15.4869 37.5415 15.71 37.5415 15.9378C37.5415 16.0414 37.5382 16.1434 37.5299 16.2454V16.2311C37.155 20.0064 35.5289 29.1618 34.7026 33.388C34.3527 35.1777 33.6646 35.7769 32.9982 35.8343C31.5504 35.9633 30.4508 34.9195 29.048 34.0398C26.8521 32.6614 25.6109 31.804 23.48 30.4606C21.0159 28.91 22.6136 28.0542 24.0164 26.6614C24.3846 26.2948 30.7673 20.741 30.8923 20.2374C30.8989 20.2072 30.9023 20.1737 30.9023 20.1386C30.9023 20.0143 30.854 19.9012 30.7757 19.8151C30.689 19.761 30.5807 19.7307 30.4674 19.7307C30.3925 19.7307 30.3208 19.745 30.2542 19.7689L30.2575 19.7673C30.0376 19.8151 26.53 22.0324 19.7347 26.4191C18.9933 26.9785 18.0569 27.3323 17.0373 27.3737H17.0273C15.5828 27.2064 14.2716 26.8988 13.0271 26.4606L13.1504 26.4988C11.5876 26.0112 10.3464 25.7546 10.453 24.9291C10.5097 24.4999 11.1283 24.0606 12.309 23.6112C19.5819 20.5801 24.4318 18.5822 26.8587 17.6175C29.5361 16.2582 32.64 15.1394 35.9038 14.4143L36.1654 14.3649L36.167 14.3665ZM25.8508 0C12.0191 0.0318725 0.818176 10.7649 0.818176 24C0.818176 37.2542 12.0508 48 25.9091 48C39.7674 48 51 37.2558 51 24C51 10.7649 39.7991 0.0318725 25.9707 0H25.9674C25.9285 0 25.8897 0 25.8508 0Z" fill="#99D8FF"/>
</svg>
