<svg width="49" height="48" viewBox="0 0 49 48" fill="none" xmlns="http://www.w3.org/2000/svg">
<path d="M4.17818 3.36C0.818177 6.752 0.818176 12.176 0.818176 23.04V24.96C0.818176 35.808 0.818177 41.232 4.17818 44.64C7.57018 48 12.9942 48 23.8582 48H25.7782C36.6262 48 42.0502 48 45.4582 44.64C48.8182 41.248 48.8182 35.824 48.8182 24.96V23.04C48.8182 12.192 48.8182 6.768 45.4582 3.36C42.0662 4.76837e-07 36.6422 0 25.7782 0H23.8582C13.0102 0 7.58618 4.76837e-07 4.17818 3.36ZM8.91452 14.6085H14.4185C14.5945 23.7605 18.6265 27.6325 21.8264 28.4325V14.6085H26.9944V22.4965C30.1464 22.1605 33.4744 18.5605 34.5944 14.5925H39.7464C39.3264 16.6465 38.4872 18.5918 37.2814 20.3069C36.0758 22.0219 34.5291 23.4699 32.7384 24.5605C34.7368 25.5549 36.5016 26.9619 37.9163 28.6885C39.3312 30.4149 40.364 32.4216 40.9464 34.5765H35.2664C34.0504 30.7845 31.0104 27.8405 26.9944 27.4405V34.5765H26.3544C15.4105 34.5765 9.17052 27.0885 8.91452 14.6085Z" fill="#99D8FF"/>
</svg>
